<svg xmlns="http://www.w3.org/2000/svg"  viewBox="0 0 24 24" width="24px" height="24px"><path d="M11.981,1.987C6.451,1.987,1.968,6.47,1.968,12s4.483,10.013,10.013,10.013S21.994,17.53,21.994,12	S17.511,1.987,11.981,1.987z" opacity=".35"/><path d="M4.418,13.358c-2.377,0.957-3.503,1.804-3.503,1.804h0.842c0.897-0.573,1.978-1.05,2.943-1.414	C4.542,13.682,4.443,13.531,4.418,13.358z"/><path d="M9.495,12.643l0.792,0.013L9.88,11.69L9.495,12.643z M9.33,13.247l-0.144,0.506l0.423,0.232l-1.402-0.002l0.435-0.244	l0.903-2.952l-0.493-0.246h1.669l1.391,3.198l0.07,0.246h-1.739l0.278-0.246l-0.278-0.492L9.33,13.247L9.33,13.247z M14.679,11.67	c0.304,0.071,1.331,0.602,0.974,1.649c0,0-0.443,1.305-2.864,0.526l-0.27,0.263v-1.051l0.27,0.263c0,0,1.84,0.696,1.831-0.167	c-0.003-0.168-0.318-0.445-1.162-0.552c0,0-0.95-0.028-0.939-1.121c0.004-0.444,0.33-1.562,2.699-0.789l0.245-0.273l-0.006,1.034	l-0.239-0.236c0,0-1.402-0.439-1.542-0.004C13.527,11.674,14.255,11.571,14.679,11.67z"/><path d="M3.901,10.554H5.57l1.391,2.214v-1.968l-0.278-0.246h1.112l-0.278,0.246v2.952l0.278,0.246H6.126l-1.39-2.214v1.968	l0.278,0.246H3.901l0.278-0.246v-2.952L3.901,10.554z M17.483,12.672l0.854-0.004l-0.458-1.011L17.483,12.672z M17.396,13.247	l-0.174,0.492l0.452,0.246l-1.402-0.002l0.435-0.244l0.903-2.952l-0.493-0.246h1.669l1.391,3.198l0.278,0.246h-1.947l0.278-0.246	l-0.278-0.492L17.396,13.247L17.396,13.247z"/><path d="M10.627,15.362c-0.092,0.087,0.005,0.339,0.216,0.563c0.211,0.224,0.457,0.335,0.549,0.248	c0.092-0.087-0.005-0.339-0.216-0.563C10.965,15.386,10.719,15.275,10.627,15.362z"/><path d="M14.955,4.235l-0.838-0.121c-0.011-0.002-0.022-0.008-0.03-0.015c-0.009-0.009-0.014-0.021-0.016-0.032l-0.122-0.838	c-0.009-0.062-0.062-0.107-0.124-0.107s-0.115,0.046-0.124,0.107l-0.121,0.84c-0.001,0.01-0.007,0.021-0.015,0.028	c-0.009,0.009-0.021,0.015-0.031,0.017l-0.839,0.122c-0.062,0.009-0.107,0.062-0.107,0.124s0.046,0.115,0.107,0.124l0.838,0.121	c0.011,0.002,0.022,0.008,0.031,0.017c0.009,0.008,0.015,0.019,0.016,0.03l0.121,0.838c0.009,0.062,0.062,0.107,0.124,0.107	s0.115-0.045,0.124-0.107l0.121-0.837c0.001-0.012,0.007-0.023,0.017-0.033c0.009-0.008,0.019-0.013,0.03-0.015l0.838-0.122	c0.062-0.009,0.107-0.062,0.107-0.124S15.017,4.244,14.955,4.235z"/><path d="M9.908,7.924l-0.84-0.122C9.059,7.801,9.048,7.795,9.04,7.787C9.03,7.778,9.025,7.769,9.024,7.755L8.902,6.917	c-0.018-0.123-0.23-0.123-0.248,0L8.533,7.754C8.532,7.766,8.525,7.778,8.517,7.788C8.509,7.795,8.498,7.8,8.486,7.802L7.648,7.924	C7.587,7.933,7.541,7.986,7.541,8.048s0.046,0.115,0.107,0.124l0.838,0.121c0.014,0.002,0.024,0.01,0.03,0.015	C8.525,8.317,8.53,8.328,8.532,8.34l0.122,0.838C8.663,9.24,8.716,9.285,8.778,9.285s0.115-0.046,0.124-0.107l0.121-0.84	c0.001-0.01,0.007-0.021,0.016-0.029C9.048,8.3,9.058,8.295,9.069,8.293l0.839-0.122c0.062-0.009,0.107-0.062,0.107-0.124	S9.97,7.933,9.908,7.924z"/><path d="M10.739,18.991L9.901,18.87c-0.011-0.002-0.022-0.008-0.03-0.015c-0.009-0.009-0.014-0.021-0.016-0.032l-0.122-0.838 c-0.009-0.062-0.062-0.107-0.124-0.107s-0.115,0.046-0.124,0.107l-0.121,0.84c-0.001,0.01-0.007,0.021-0.015,0.028 c-0.009,0.009-0.021,0.015-0.031,0.017l-0.839,0.122C8.418,19,8.372,19.052,8.372,19.114s0.046,0.115,0.107,0.124l0.838,0.121 c0.011,0.002,0.022,0.008,0.031,0.017c0.009,0.008,0.014,0.017,0.015,0.03l0.122,0.838c0.009,0.062,0.062,0.107,0.124,0.107 s0.115-0.046,0.124-0.107l0.121-0.837c0.001-0.012,0.007-0.023,0.017-0.033c0.009-0.008,0.019-0.013,0.03-0.015l0.838-0.122 c0.062-0.009,0.107-0.062,0.107-0.124S10.801,19,10.739,18.991z"/><path d="M20.752,15.621L19.914,15.5c-0.011-0.002-0.022-0.008-0.031-0.017c-0.008-0.008-0.013-0.018-0.015-0.03l-0.122-0.838 c-0.009-0.062-0.062-0.107-0.124-0.107s-0.115,0.046-0.124,0.107l-0.121,0.84c-0.001,0.01-0.007,0.021-0.015,0.028 c-0.009,0.01-0.021,0.015-0.032,0.017l-0.838,0.122c-0.062,0.009-0.107,0.062-0.107,0.124s0.046,0.115,0.107,0.124l0.838,0.121 c0.011,0.002,0.022,0.008,0.031,0.017c0.008,0.008,0.013,0.018,0.015,0.03l0.122,0.838c0.009,0.062,0.062,0.107,0.124,0.107 s0.115-0.046,0.124-0.107l0.121-0.837c0.001-0.009,0.005-0.021,0.017-0.033c0.009-0.008,0.019-0.013,0.03-0.015l0.838-0.122 c0.062-0.009,0.107-0.062,0.107-0.124S20.813,15.63,20.752,15.621z"/><circle cx="18.568" cy="17.006" r=".263"/><circle cx="5.921" cy="16.479" r=".263"/><circle cx="4.34" cy="15.425" r=".263"/><circle cx="12.244" cy="5.413" r=".263"/><circle cx="10.136" cy="9.102" r=".263"/><path d="M9.266,12.309l0.216-0.647c-1.073,0.375-1.754,0.583-1.754,0.583c-0.165,0.046-0.321,0.093-0.48,0.139 c0.091,0.166,0.102,0.378-0.016,0.547C7.947,12.718,8.617,12.512,9.266,12.309z"/><path d="M20.073,6.668c-2.999,2.038-6.992,3.682-9.614,4.644l0.292,0.524c5.424-1.762,8.081-2.998,8.081-2.998 c-0.051,0.068,0.066,0.452,0,0.527c0.405-0.19,0.628-0.577,1.198-0.869c2.916-2.965,3.544-5.455,3.544-5.455 C23.085,3.971,21.764,5.243,20.073,6.668z"/><g><path d="M12.686,13.418c-1.838,1.197-3.621,2.33-4.613,3.032c-2.809,1.989-3.997,3.656-3.997,3.656v0.853 c1.245-2.241,3.441-3.674,3.441-3.674c1.271-0.932,3.403-2.371,5.377-3.68L12.686,13.418z"/><path d="M18.832,8.838c-0.451,0.72-2.507,2.176-4.762,3.672l0.26,0.146c1.812-1.192,3.217-2.1,3.217-2.1 c0.894-0.666,2.023-1.521,2.582-2.166L18.832,8.838z"/></g></svg>